<svg width="226" height="167" viewBox="0 0 226 167" fill="none" xmlns="http://www.w3.org/2000/svg">
<path fill-rule="evenodd" clip-rule="evenodd" d="M85.2805 164.326C122.851 174.891 141.132 134.346 173.323 137.431C190.944 139.119 226.068 147.678 225.99 85.3352C225.793 45.0865 188.696 35.008 150.44 55.6488C139.183 60.0513 130.295 58.687 120.646 54.3129C110.996 49.9387 98.5857 30.4112 75.1955 26.3939C4.80676 14.3048 -55.4199 124.759 85.2805 164.326Z" fill="#0C8CE9" fill-opacity="0.1"/>
<path fill-rule="evenodd" clip-rule="evenodd" d="M174.563 63.0675C175.268 62.7247 176.532 63.3893 175.799 64.4588C174.174 66.8273 180.457 71.5583 178.44 67.3893C178.224 66.9435 177.118 63.8609 178.683 65.4526C180.248 67.0439 182.429 74.0767 181.018 76.4998C179.78 78.6262 176.503 79.638 172.031 79.7578L171.829 79.7621L171.734 79.7678C169.097 79.8905 167.098 78.2586 165.807 75.0806L165.745 74.9257C164.439 71.5992 164.797 68.9326 166.91 67.1347C166.948 67.102 166.989 67.0726 167.032 67.0468L167.099 67.0109L174.563 63.0675Z" fill="white"/>
<path fill-rule="evenodd" clip-rule="evenodd" d="M32.1117 0.811988C31.8039 0.375867 31.3058 0.124452 30.7732 0.189368C30.2284 0.255719 29.7725 0.634813 29.6065 1.15773L29.5624 1.2976C29.5286 1.40054 29.4888 1.51889 29.4418 1.65195C29.3084 2.03141 29.146 2.45282 28.9544 2.9058C28.41 4.19408 27.7397 5.47985 26.9399 6.6756C25.2137 9.25646 23.1335 11.0529 20.6954 11.7448C20.3145 11.8527 20.0932 12.2494 20.2012 12.6307C20.256 12.824 23.8171 14.6036 27.452 14.1549C30.978 13.7199 34.5821 11.0616 34.6111 10.8808L34.6556 10.5038L34.6681 10.3776C34.9206 7.63893 34.4411 4.5452 32.5969 1.5483C32.4438 1.2994 32.282 1.05408 32.1117 0.811988Z" fill="#E7EAEE"/>
<path fill-rule="evenodd" clip-rule="evenodd" d="M39.4495 1.60892L39.4309 1.75381C39.1751 3.60804 38.4596 6.18998 37.1649 8.13782C35.5714 10.5358 33.3223 12.3696 31.0621 13.5517C27.8012 15.2564 24.2523 15.5684 20.7576 13.3537L20.6034 13.2544C18.7671 12.0532 17.3734 11.4751 15.4614 11.9521C13.5491 12.4295 12.6205 13.8221 11.7951 15.1143L11.7573 15.1688C11.625 15.3457 11.4314 15.468 11.2133 15.511L7.58789 16.0852L8.90812 17.7253C9.30548 18.2228 9.58795 18.5811 9.75548 18.8006L11.2066 20.7122C15.5314 26.3846 20.1856 31.8003 29.2616 29.9256L29.5694 29.8596C31.9738 29.3248 33.9897 30.7605 36.519 32.8762L37.0595 33.3313C37.7283 33.8977 39.7511 35.6805 40.5789 36.5391L40.8493 36.8228L41.099 37.0915C41.151 37.1481 41.2005 37.2026 41.2474 37.2546L41.5057 37.5455L41.6642 37.3587C43.376 35.2975 44.4484 32.1582 45.0036 29.5687C45.2131 28.5903 45.3336 27.6535 45.3838 26.7892L45.3899 26.6766C45.4028 26.4237 45.4085 26.2031 45.4096 26.0191V25.8821L45.151 25.9582C42.1577 26.8071 38.7896 26.8914 35.5033 26.5123C34.7096 26.4205 43.418 19.3672 41.6305 10.2327C41.223 8.15109 40.9645 5.36759 40.2529 3.47821C40.0284 2.88213 39.796 2.33734 39.5654 1.85029L39.4495 1.60892Z" fill="white"/>
<path fill-rule="evenodd" clip-rule="evenodd" d="M174.942 64.1955L167.491 67.8175C165.705 69.3372 165.401 71.5974 166.58 74.5979C166.993 75.6509 168.028 78.1586 168.028 77.1737C168.028 76.866 174.942 72.3466 176.268 72.7888C177.495 73.1977 175.291 69.5122 174.673 67.8175L174.942 64.103L175.147 63.7328" fill="#E7EAEE"/>
<path fill-rule="evenodd" clip-rule="evenodd" d="M165.001 66.9137C165.496 66.9137 162.69 68.2336 162.834 70.6674C162.979 73.1008 164.881 77.5865 164.418 77.7633C163.956 77.9401 163.079 76.6325 162.902 76.1698C161.802 73.2916 161.594 72.1174 161.633 70.4386C161.685 68.2411 162.841 66.9137 165.001 66.9137Z" fill="#E7EAEE"/>
<path d="M177.487 73.6999C178.556 73.6999 179.423 71.741 179.423 69.3246C179.423 66.9082 178.556 64.9493 177.487 64.9493C176.417 64.9493 175.55 66.9082 175.55 69.3246C175.55 71.741 176.417 73.6999 177.487 73.6999Z" fill="#E7EAEE"/>
<path fill-rule="evenodd" clip-rule="evenodd" d="M42.2041 115.456C42.2041 107.864 43.0477 104.563 52.1054 100.42C70.6693 92.9168 70.6692 92.6273 106.233 78.8777C115.639 75.2599 135.467 83.9257 144.089 80.294C149.837 77.8731 155.213 76.0752 159.961 73.674C160.421 76.677 163.394 81.7612 164.441 82.6353C158.88 83.8023 153.501 85.6071 148.303 88.0498C137.067 93.3299 143.725 91.891 125.928 108.674C124.419 110.097 118.877 113.34 110.863 116.718C110.863 116.718 94.7233 114.551 88.2504 111.858C81.6627 109.118 71.681 100.42 71.681 100.42C71.681 100.42 60.0388 108.015 53.346 111.429C50.2135 113.027 42.2041 115.456 42.2041 115.456Z" fill="white"/>
<path fill-rule="evenodd" clip-rule="evenodd" d="M42.2038 111.51C42.2038 109.729 42.0155 108.485 42.2038 107.109C42.8178 102.625 45.2229 100.33 52.1546 97.1596C70.7184 89.6562 70.669 88.6821 106.233 74.9325C115.638 71.3148 135.466 79.9805 144.089 76.3488C149.837 73.9279 155.212 72.13 159.961 69.7288C159.975 69.8149 159.481 73.9186 159.481 73.9186C159.481 73.9186 147.757 80.1096 140.001 81.4223C131.762 82.8171 120.444 76.3488 109.143 79.53C91.9334 84.3747 52.2748 99.6017 47.5829 103.418C43.8966 106.416 42.2038 111.51 42.2038 111.51Z" fill="#E7EAEE"/>
<path fill-rule="evenodd" clip-rule="evenodd" d="M32.1117 0.811988C31.8039 0.375867 31.3058 0.124452 30.7732 0.189368C30.2284 0.255719 29.7725 0.634813 29.6065 1.15773L29.5624 1.2976C29.5286 1.40054 29.4888 1.51889 29.4418 1.65195C29.3084 2.03141 29.146 2.45282 28.9544 2.9058C28.41 4.19408 27.7397 5.47985 26.9399 6.6756C25.2137 9.25646 23.1335 11.0529 20.6954 11.7448C20.3145 11.8527 20.0932 12.2494 20.2012 12.6307C20.3095 13.0115 26.2333 10.312 28.1321 7.47324C28.9871 6.19536 29.6983 4.83105 30.2761 3.46458C30.4504 3.05213 30.6021 2.66371 30.7319 2.30542L30.795 2.1286C30.846 1.98442 30.8897 1.85495 30.9267 1.74054C30.936 1.65912 30.945 1.63187 30.9529 1.65877C35.0623 4.46988 33.4469 11.4467 33.8414 11.4808C34.2184 11.5131 34.5519 11.248 34.6111 10.8808L34.6556 10.5038L34.6681 10.3776C34.9206 7.63893 34.4411 4.5452 32.5969 1.5483C32.4438 1.2994 32.282 1.05408 32.1117 0.811988Z" fill="#E7EAEE"/>
<path fill-rule="evenodd" clip-rule="evenodd" d="M40.6682 0.791176L40.7586 0.952927L40.8691 1.16023C40.9358 1.28791 41.0104 1.43603 41.0918 1.60352C41.3737 2.18346 41.6581 2.8398 41.9307 3.56356C42.6982 5.6007 43.2344 7.79924 43.4176 10.0899C43.6662 13.1984 43.2175 16.1318 42.0809 18.8005L41.9837 19.0247C41.0606 21.1095 39.7156 23.0197 37.9697 24.7334L37.7965 24.9009L37.9435 24.908C40.458 25.0138 42.9446 24.7886 45.1302 24.0917C45.599 23.9422 46.11 24.0193 46.5139 24.3001C46.917 24.5806 47.1673 25.0318 47.1925 25.522L47.1982 25.6741L47.2018 25.8753V25.9528C47.2018 26.2332 47.1935 26.5481 47.1734 26.8928C47.1186 27.845 46.9866 28.8722 46.7567 29.9446C46.1072 32.9741 44.8088 35.8114 42.6867 38.2022C42.4048 38.5196 42.0088 38.7097 41.5874 38.7323L41.4902 38.7344C41.0405 38.7262 40.6295 38.54 40.3375 38.2226L40.1238 37.9741L40.0191 37.855L39.7963 37.6079L39.5524 37.3443C39.4674 37.2543 39.3792 37.1614 39.2878 37.0667C38.5088 36.2587 37.6487 35.4578 36.7352 34.7208C34.2039 32.6779 31.7618 31.5244 29.6762 31.6496C26.2651 31.8544 23.44 31.6952 20.819 30.9596C17.4308 30.0091 14.7699 28.1438 13.0093 25.1741L12.9106 25.0049C11.9991 23.4153 10.6527 21.584 9.06467 19.6782C8.57389 19.0889 8.08982 18.5287 7.62841 18.0108L7.43209 17.7913C7.11777 17.4416 6.86022 17.1629 6.75226 17.0496C6.35373 16.6296 6.21522 16.0271 6.38934 15.4762L6.41491 15.4016C6.60618 14.8869 7.05102 14.5053 7.59319 14.3981L10.5005 13.8235L10.5344 13.7747C11.5747 12.296 13.06 11.0436 15.0332 10.539C17.0911 10.0128 19.2567 10.4705 21.4376 11.8542L21.5897 11.9521C24.5353 13.8788 27.4547 13.7722 30.2307 12.3211C32.2133 11.2843 34.1034 9.52364 35.5352 7.36921C36.8669 5.36578 37.658 3.22427 37.7147 1.53394C37.738 0.827758 38.2254 0.221278 38.9105 0.0484075C39.5962 -0.12518 40.3135 0.178598 40.6682 0.791176ZM39.4492 1.6089L39.4305 1.7538C39.1751 3.60803 38.4593 6.18997 37.1649 8.13781C35.571 10.5358 33.3219 12.3695 31.0617 13.5517C27.8012 15.2563 24.252 15.5684 20.7573 13.3537L20.6031 13.2543C18.7668 12.0532 17.373 11.4751 15.4611 11.9521C13.5491 12.4294 12.6202 13.8221 11.7948 15.1143L11.757 15.1688C11.6247 15.3456 11.4311 15.4679 11.213 15.511L7.58756 16.0852L8.9078 17.7253C9.30519 18.2227 9.58762 18.581 9.75515 18.8005L11.2063 20.7125C15.531 26.3846 20.1852 31.8002 29.2613 29.9256L29.569 29.8596C31.9734 29.3248 33.9894 30.7605 36.5186 32.8762L37.0591 33.3313C37.728 33.8976 39.7508 35.6805 40.5785 36.5391L40.849 36.8228L41.0986 37.0914C41.1506 37.1481 41.2001 37.2026 41.2474 37.2546L41.5053 37.5455L41.6638 37.3586C43.3757 35.2975 44.448 32.1582 45.0032 29.5687C45.213 28.5903 45.3332 27.6535 45.3834 26.7892L45.3895 26.6765C45.4024 26.4237 45.4082 26.2031 45.4092 26.0191V25.8821L45.1506 25.9582C42.1573 26.8071 38.7892 26.8914 35.5029 26.5123C34.7092 26.4208 43.4176 19.3672 41.6301 10.2327C41.2227 8.15108 40.9641 5.36758 40.2525 3.4782C40.0284 2.88212 39.7956 2.33732 39.565 1.85027L39.4492 1.6089Z" fill="#E7EAEE"/>
<path fill-rule="evenodd" clip-rule="evenodd" d="M16.7162 17.7533C17.4084 17.7533 17.9715 17.1902 17.9715 16.498C17.9715 15.8058 17.4084 15.2427 16.7162 15.2427C16.024 15.2427 15.4609 15.8058 15.4609 16.498C15.4609 17.1902 16.024 17.7533 16.7162 17.7533Z" fill="#00160A"/>
<path d="M17.7929 22.7744C18.8823 22.7744 19.7655 22.0518 19.7655 21.1605C19.7655 20.2691 18.8823 19.5465 17.7929 19.5465C16.7035 19.5465 15.8203 20.2691 15.8203 21.1605C15.8203 22.0518 16.7035 22.7744 17.7929 22.7744Z" fill="#FFB61D"/>
<path d="M17.7929 22.7744C18.8823 22.7744 19.7655 22.0518 19.7655 21.1605C19.7655 20.2691 18.8823 19.5465 17.7929 19.5465C16.7035 19.5465 15.8203 20.2691 15.8203 21.1605C15.8203 22.0518 16.7035 22.7744 17.7929 22.7744Z" fill="#FFB61D"/>
<path fill-rule="evenodd" clip-rule="evenodd" d="M40.6685 0.791176L40.7589 0.952927L40.8694 1.16023C40.9357 1.28791 41.0107 1.43603 41.0921 1.60352C41.374 2.18346 41.6584 2.8398 41.931 3.56356C42.6985 5.6007 43.2347 7.79924 43.418 10.0899C43.6665 13.1984 43.2178 16.1318 42.0813 18.8005L41.9841 19.0247C41.0609 21.1095 39.716 23.0197 37.9697 24.7334L37.7968 24.9009L37.9439 24.908C40.4584 25.0138 42.9446 24.7886 45.1305 24.0917C45.5993 23.9422 46.1104 24.0193 46.5142 24.3001C46.9173 24.5806 47.1677 25.0318 47.1928 25.522L47.1985 25.6741L47.2021 25.8753V25.9528C47.2021 26.2332 47.1939 26.5481 47.1738 26.8928C47.1185 27.845 46.9866 28.8722 46.757 29.9446C46.1075 32.9741 44.8092 35.8114 42.687 38.2022C42.4051 38.5196 42.0088 38.7097 41.5878 38.7323L41.4906 38.7344C41.0405 38.7262 40.6298 38.54 40.3379 38.2226L40.1241 37.9741L40.0194 37.855L39.7967 37.6079L39.5524 37.3443C39.4678 37.2543 39.3796 37.1614 39.2881 37.0667C38.5087 36.2587 37.6491 35.4578 36.7356 34.7208C34.2038 32.6779 31.7621 31.5244 29.6766 31.6496C26.2651 31.8544 23.4403 31.6952 20.8193 30.9596C17.4308 30.0091 14.7703 28.1438 13.0096 25.1741L12.9109 25.0049C11.9993 23.4153 10.653 21.584 9.06494 19.6782C8.57416 19.0889 8.09008 18.5287 7.62868 18.0108L7.43235 17.7913C7.11803 17.4416 6.86048 17.1629 6.75256 17.0496C6.35399 16.6296 6.21548 16.0271 6.38961 15.4762L6.41518 15.4016C6.60645 14.8869 7.05132 14.5053 7.59349 14.3981L10.5008 13.8235L10.5347 13.7747C11.575 12.296 13.0603 11.0436 15.0332 10.539C16.9753 10.0422 19.0135 10.4221 21.0696 11.6293C23.3471 10.8657 25.3028 9.12374 26.9401 6.67594C27.7402 5.47984 28.4105 4.19407 28.955 2.90615C29.1465 2.45281 29.3086 2.03175 29.4424 1.65194C29.4894 1.51924 29.5292 1.40088 29.5629 1.29759L29.607 1.15772C29.7727 0.634802 30.2285 0.255707 30.7737 0.189715C31.3059 0.124441 31.8045 0.375856 32.1118 0.812336C32.2825 1.05407 32.4443 1.29974 32.5974 1.54865C34.0288 3.87487 34.6382 6.25955 34.721 8.49108C35.0058 8.13135 35.278 7.75656 35.5355 7.36921C36.8668 5.36578 37.6584 3.22427 37.7147 1.53394C37.7384 0.827758 38.2258 0.221278 38.9108 0.0484075C39.5965 -0.12518 40.3138 0.178598 40.6685 0.791176ZM30.2311 12.3211C27.5347 13.7306 24.7028 13.8716 21.8433 12.1127C23.7685 11.2226 26.8576 9.37946 28.1326 7.47358C28.9872 6.1957 29.6988 4.83104 30.2762 3.46457C30.4505 3.05248 30.6023 2.66406 30.7324 2.30541L30.7956 2.12895C30.8461 1.98441 30.8899 1.85494 30.9272 1.74089C30.9365 1.65911 30.9451 1.63186 30.9534 1.65876C33.6849 3.52769 33.8868 7.23687 33.8312 9.524C32.7334 10.6957 31.5014 11.6569 30.2311 12.3211ZM31.062 13.5517C32.1559 12.9793 33.2477 12.2544 34.2637 11.3865C34.3416 11.3413 34.4108 11.281 34.4667 11.21C35.471 10.3245 36.3945 9.29697 37.1649 8.13781C38.4596 6.18997 39.1751 3.60803 39.4308 1.7538L39.4495 1.6089L39.5653 1.85027C39.7959 2.33732 40.0284 2.88212 40.2529 3.4782C40.7482 4.79302 41.024 6.54073 41.2833 8.18371V8.18407C41.3963 8.90174 41.5064 9.59968 41.6305 10.2327C43.0005 17.2339 38.2046 23.0126 36.2471 25.371C35.6506 26.0898 35.3178 26.4908 35.5032 26.5123C38.7896 26.8914 42.1573 26.8071 45.151 25.9582L45.4096 25.8821V26.0191C45.4085 26.2031 45.4028 26.4237 45.3898 26.6765L45.3837 26.7892C45.3335 27.6535 45.213 28.5903 45.0036 29.5687C44.4484 32.1582 43.376 35.2975 41.6642 37.3586L41.5056 37.5455L41.2474 37.2546C41.2004 37.2026 41.1509 37.1481 41.0989 37.0914L40.8493 36.8228L40.5789 36.5391C39.7511 35.6805 37.7283 33.8976 37.0594 33.3313L36.5189 32.8762C33.9897 30.7605 31.9737 29.3248 29.5693 29.8596L29.2616 29.9256C20.1856 31.8002 15.5313 26.3846 11.2066 20.7125L9.75545 18.8005C9.58789 18.581 9.30545 18.2227 8.9081 17.7253L7.58783 16.0852L11.2132 15.511C11.4314 15.4679 11.6249 15.3456 11.7573 15.1688L11.7951 15.1143C12.6205 13.8221 13.5491 12.4294 15.4614 11.9521C17.3734 11.4751 18.7671 12.0532 20.6034 13.2543L20.7576 13.3537C24.2523 15.5684 27.8012 15.2563 31.062 13.5517ZM174.562 63.0675C175.268 62.7247 176.532 63.3893 175.798 64.4591C174.688 66.0784 175.922 69.8385 176.673 72.1285V72.1289V72.1292C177.021 73.1884 177.266 73.9329 177.127 74.0057C176.688 74.2349 176.146 74.0653 175.917 73.6263C174.675 71.2498 173.961 69.3626 173.783 67.928C173.695 67.2143 173.675 66.5239 173.725 65.8575L173.732 65.7808L167.99 68.5718L167.917 68.6385C166.621 69.8543 166.051 71.266 166.999 73.7665L167.055 73.9118C168.085 76.5335 169.828 78.4139 171.642 78.3357L171.784 78.3286C175.814 78.2475 178.222 77.0349 179.082 75.558C180.163 73.7012 180.456 71.5586 178.44 67.3893C178.224 66.9439 177.118 63.8612 178.683 65.4526C180.248 67.0439 182.429 74.0767 181.018 76.4998C179.84 78.5226 176.818 79.5369 172.676 79.7338C172.7 79.8392 172.705 79.9511 172.689 80.0644C172.296 82.7271 171.081 84.402 169.049 84.8865C167.495 85.257 165.825 84.7664 164.295 83.5835C158.919 84.7377 153.716 86.4969 148.685 88.8615L147.94 89.2144C145.372 90.4406 143.9 91.2626 142.826 92.0617C142.195 92.5301 141.674 93.0103 141.114 93.6279L141.024 93.7309C140.752 94.0458 140.16 94.7684 139.487 95.5912L139.486 95.5926L139.485 95.5937L139.485 95.5941L139.484 95.5948L139.482 95.5973L139.481 95.5987C138.585 96.693 137.546 97.9619 136.926 98.6803L136.626 99.0257C134.101 101.919 130.918 105.202 126.544 109.327L126.421 109.439C124.781 110.905 120.422 113.383 114.987 115.882C129.987 115.349 140.802 109.624 147.538 98.6971C147.834 98.2162 148.496 98.1258 148.911 98.5096C160.492 109.236 173.912 114.2 189.222 113.425C204.572 112.648 215.836 108.658 223.05 101.495C223.401 101.146 223.969 101.149 224.317 101.5C224.666 101.851 224.664 102.419 224.313 102.768C216.746 110.282 200.68 115.92 184.925 116.718C169.603 117.494 160.461 111.181 148.771 100.804L148.486 100.549L148.383 100.706C140.98 111.926 124.895 120.109 108.844 120.225L108.34 120.227C91.9225 120.227 82.4537 112.277 71.3771 101.411L71.2906 101.326L71.2512 101.36L70.9617 101.603L70.5411 101.957L70.2835 102.174C59.9045 110.908 52.1601 117.426 40.5104 119.09L40.1388 119.142C27.0039 121.8 7.08277 114.721 4.02146 111.251C1.21655 108.072 4.48821 110.048 5.38638 110.591H5.38646C5.46852 110.64 5.53074 110.678 5.56672 110.698C14.2603 115.676 24.2839 117.571 36.3102 115.931C37.9697 115.704 39.6191 115.405 41.2578 115.032L41.2388 114.855C40.7137 109.868 40.7105 107.688 41.4673 105.186C42.4962 101.783 44.995 99.1974 49.4896 97.1417L50.7273 96.5943C56.2792 94.1476 60.6885 92.3106 65.2621 90.5256L65.597 90.395C66.1099 90.1956 66.6296 89.9948 67.16 89.7914L67.6797 89.5931C67.8673 89.5267 70.3115 88.5577 74.0279 87.0843L74.0293 87.084L74.039 87.08L74.0408 87.0793L74.0415 87.079C82.6323 83.6732 98.0031 77.5797 108.03 73.7027C110.199 72.8684 112.826 72.5912 116.047 72.7576L116.325 72.773C118.738 72.9151 121.112 73.2425 125.003 73.9157L128.422 74.5146C132.239 75.1753 134.089 75.436 136.249 75.5899C136.928 75.6383 137.573 75.6982 138.186 75.7552H138.186C140.457 75.9661 142.285 76.1361 143.742 75.5228C145.037 74.9773 146.307 74.4504 147.551 73.9343H147.551C151.621 72.2462 155.417 70.6717 158.939 68.9204C159.181 67.3538 159.798 66.1971 160.766 65.4354C162.258 64.2604 164.37 64.2407 166.202 64.953C166.663 65.1327 166.892 65.6523 166.713 66.1136C166.654 66.2631 166.281 66.1943 165.754 66.0971C164.65 65.8934 162.869 65.5648 161.875 66.8442C160.77 68.2676 160.402 70.4479 161.382 74.741C162.091 77.8523 166.69 83.1424 168.633 83.1424C170.799 83.1424 171.305 81.0396 171.592 79.8471L171.61 79.7725C169.034 79.8392 167.077 78.2091 165.807 75.081L165.745 74.926C164.438 71.5992 164.797 68.9326 166.909 67.1347C166.948 67.102 166.989 67.0726 167.032 67.0471L167.099 67.0113L174.562 63.0675ZM162.64 81.9624C162.549 81.8527 162.46 81.7401 162.371 81.6249C162.337 81.5891 162.305 81.5528 162.277 81.5191C162.195 81.4198 162.112 81.319 162.026 81.2164C161.331 80.3818 160.526 79.4146 159.896 78.0201L159.804 77.8168C158.793 75.5512 158.672 73.0062 158.734 70.9077L158.744 70.6642L158.69 70.6911C154.512 72.759 149.966 74.8338 145.054 76.9151L144.438 77.1755C142.334 78.0614 139.707 78.6872 136.379 78.472L136.122 78.4544C133.847 78.2923 131.935 78.0205 127.924 77.3243L124.93 76.7993C116.488 75.3378 112.264 75.1096 108.783 76.4112C108.783 76.4112 56.8743 95.938 50.2259 98.7764C46.1828 100.626 44.811 102.367 43.1389 105.186C42.2739 106.645 42.3614 110.669 42.4224 113.463V113.464C42.4324 113.932 42.4417 114.366 42.446 114.748C52.2609 112.293 61.6956 107.19 70.7562 99.4277C71.1135 99.1218 71.6464 99.1437 71.9771 99.4779C72.7102 100.219 73.4555 100.935 74.2129 101.626L111.593 86.0091C111.696 85.9661 111.801 85.9438 111.906 85.9399C112.188 85.8072 112.492 85.6974 112.817 85.6106C116.077 84.7441 118.68 86.154 120.478 89.6243L123.736 87.2475C124.217 86.8971 124.899 87.103 125.106 87.6607C128.079 95.6963 127.213 101.202 122.317 103.859C117.379 106.538 113.085 104.329 109.738 97.6327C109.568 97.293 109.635 96.9003 109.87 96.6356C109.072 93.3937 108.924 90.8107 109.467 88.9404L76.7167 103.782C81.6137 107.758 86.991 110.756 92.8524 112.779C92.9866 112.65 93.1318 112.54 93.2746 112.462C98.2118 109.758 110.376 106.599 113.381 105.818C113.641 105.751 113.832 105.701 113.944 105.671C115.354 105.293 113.91 106.61 113.484 106.807L113.43 106.83L95.6758 113.667C100.957 115.171 106.612 115.923 112.644 115.923C112.988 115.923 113.328 115.92 113.667 115.915L114.064 115.657H114.065L114.065 115.656L114.066 115.656C117.862 113.188 124.211 109.062 125.313 108.022L125.827 107.536C129.483 103.989 132.203 100.587 134.578 97.6161C137.183 94.3571 139.373 91.6191 141.924 89.7821C143.907 88.354 144.626 88.0276 146.315 87.2608C146.767 87.0556 147.288 86.8189 147.922 86.5212C152.403 84.4152 157.492 83.1962 162.269 82.0514L162.64 81.9624ZM113.278 87.3436C115.861 86.6572 117.795 87.8701 119.27 91.2569L115.46 94.2771L115.456 94.2785L111.52 95.8319L111.422 95.3997C110.344 90.5134 111.046 87.9372 113.278 87.3436ZM119.27 91.2569L115.463 94.276C115.54 94.2459 115.618 94.2269 115.697 94.2183C115.769 94.2107 115.841 94.2118 115.911 94.2215C116.078 94.2437 116.237 94.3133 116.368 94.4223C116.454 94.4941 116.527 94.5823 116.582 94.6852C117.48 96.3031 118.175 96.6883 118.88 96.2927C119.627 95.8742 119.861 94.3001 119.316 91.4879L119.27 91.2569ZM69.8826 128.073C70.2993 127.805 73.1736 126.402 70.6139 129.038C68.0542 131.674 48.1188 142.857 37.3578 143.476C26.986 144.073 17.7772 139.742 9.76503 134.072L9.49952 133.883L9.44658 133.951C9.09191 134.401 8.72745 134.809 8.35294 135.175L8.19184 135.33C7.51319 135.967 6.33864 136.688 4.64164 137.526C4.19767 137.745 2.62885 137.947 3.44062 137.119C4.25243 136.291 6.0292 135.1 7.06394 134.416C7.74018 133.969 7.95376 133.447 8.16565 132.929C8.27798 132.654 8.38985 132.381 8.56993 132.12C8.85918 131.702 9.43822 131.607 9.84526 131.912C17.7439 137.832 26.9705 140.988 37.3578 140.39C47.7878 139.79 58.5599 135.358 69.8826 128.073ZM131.23 133.789C131.593 133.454 131.593 131.058 131.23 131.394C127.201 135.111 118.767 138.381 108.359 138.98C97.9378 139.58 89.7447 137.941 83.7635 134.095C83.3471 133.827 81.2852 133.119 82.5243 134.364C83.7635 135.61 97.6914 142.107 108.462 141.487L108.784 141.468C119.397 140.82 126.878 137.805 131.23 133.789ZM123.873 89.5673L123.819 89.4062L121.12 91.376L121.169 91.6543C121.712 94.8294 121.342 96.9046 119.836 97.8113L119.757 97.8572C118.188 98.7369 116.711 98.1154 115.476 96.3071L115.421 96.2267L111.791 97.6929L111.875 97.8453C114.65 102.852 117.725 104.245 121.344 102.345L121.461 102.283C125.096 100.311 125.992 96.2856 123.999 89.9575L123.873 89.5673ZM17.972 16.498C17.972 17.1902 17.4089 17.7533 16.7167 17.7533C16.0245 17.7533 15.4614 17.1902 15.4614 16.498C15.4614 15.8058 16.0245 15.2427 16.7167 15.2427C17.4089 15.2427 17.972 15.8058 17.972 16.498Z" fill="#00160A"/>
</svg>
