<svg width="24" height="24" viewBox="0 0 24 24" fill="none" xmlns="http://www.w3.org/2000/svg">
<path d="M19.5 20.25H4.5C4.08579 20.25 3.75 19.9142 3.75 19.5V4.5C3.75 4.08579 4.08579 3.75 4.5 3.75H19.5C19.9142 3.75 20.25 4.08579 20.25 4.5V19.5C20.25 19.9142 19.9142 20.25 19.5 20.25Z" stroke="#4F4F4F" style="stroke:#4F4F4F;stroke:color(display-p3 0.3098 0.3098 0.3098);stroke-opacity:1;" stroke-width="1.5" stroke-linecap="round" stroke-linejoin="round"/>
<path d="M9 13.5C9.82843 13.5 10.5 14.1716 10.5 15C10.5 15.8284 9.82843 16.5 9 16.5C8.17157 16.5 7.5 15.8284 7.5 15C7.5 14.1716 8.17157 13.5 9 13.5Z" stroke="#4F4F4F" style="stroke:#4F4F4F;stroke:color(display-p3 0.3098 0.3098 0.3098);stroke-opacity:1;" stroke-width="1.5" stroke-linecap="round" stroke-linejoin="round"/>
<path d="M5.31445 3.7499L15.5941 14.0305C15.6638 14.1003 15.7465 14.1556 15.8376 14.1933C15.9286 14.2311 16.0262 14.2505 16.1248 14.2505C16.2233 14.2505 16.3209 14.2311 16.412 14.1933C16.503 14.1556 16.5857 14.1003 16.6554 14.0305L20.2498 10.4352" stroke="#4F4F4F" style="stroke:#4F4F4F;stroke:color(display-p3 0.3098 0.3098 0.3098);stroke-opacity:1;" stroke-width="1.5" stroke-linecap="round" stroke-linejoin="round"/>
</svg>
