<svg width="25" height="24" viewBox="0 0 25 24" xmlns="http://www.w3.org/2000/svg">
<g id="mdi:treasure-chest-outline">
<path id="Vector" d="M2.75 20H22.75V7C22.75 6.2 22.43 5.44 21.87 4.88C21.31 4.32 20.55 4 19.75 4H5.75C4.95 4 4.19 4.32 3.63 4.88C3.07 5.44 2.75 6.2 2.75 7V20ZM20.75 11H15.75V9H9.75V11H4.75V7C4.75 6.74 4.86 6.5 5.04 6.29C5.25 6.11 5.49 6 5.75 6H19.75C20.02 6 20.25 6.11 20.46 6.29C20.65 6.5 20.75 6.74 20.75 7V11ZM15.75 13H20.75V18H4.75V13H9.75L11.75 15H13.75L15.75 13ZM11.75 11H13.75V13H11.75V11Z" fill="#4f4f4f" />
</g>
</svg>
