<svg xmlns="http://www.w3.org/2000/svg" width="24" height="24" viewBox="0 0 24 24" fill="none">
  <path d="M22.5 5.24989V9.74989C22.5 9.9488 22.421 10.1396 22.2803 10.2802C22.1397 10.4209 21.9489 10.4999 21.75 10.4999H17.25C17.1016 10.5 16.9565 10.4561 16.833 10.3737C16.7096 10.2913 16.6134 10.1741 16.5565 10.037C16.4997 9.89986 16.4849 9.74897 16.5139 9.60341C16.5428 9.45785 16.6144 9.32416 16.7194 9.21926L18.3131 7.62551L17.3241 6.72083L17.3006 6.69833C16.2582 5.65629 14.9318 4.9445 13.4872 4.6519C12.0426 4.3593 10.5438 4.49884 9.17803 5.05311C7.81227 5.60737 6.6401 6.55178 5.80795 7.76835C4.9758 8.98493 4.52057 10.4197 4.49913 11.8935C4.47769 13.3673 4.89098 14.8148 5.68738 16.055C6.48378 17.2953 7.62798 18.2734 8.97704 18.8672C10.3261 19.4609 11.8202 19.644 13.2727 19.3936C14.7252 19.1431 16.0718 18.4702 17.1441 17.459C17.2157 17.3912 17.2999 17.3383 17.3919 17.3031C17.484 17.268 17.5821 17.2513 17.6806 17.254C17.7791 17.2568 17.8761 17.2789 17.966 17.3191C18.056 17.3593 18.1371 17.4169 18.2049 17.4885C18.2726 17.5601 18.3255 17.6443 18.3607 17.7364C18.3958 17.8284 18.4125 17.9265 18.4098 18.025C18.407 18.1235 18.3849 18.2205 18.3447 18.3104C18.3045 18.4004 18.2469 18.4816 18.1753 18.5493C16.5077 20.1284 14.2967 21.0058 12 20.9999H11.8763C10.4023 20.9797 8.95579 20.5978 7.66397 19.8876C6.37216 19.1775 5.27455 18.1609 4.46762 16.9273C3.6607 15.6936 3.16915 14.2806 3.0362 12.8125C2.90324 11.3443 3.13294 9.86604 3.70511 8.50747C4.27728 7.14891 5.1744 5.95169 6.31762 5.02104C7.46085 4.09039 8.81517 3.4548 10.2616 3.17013C11.7079 2.88547 13.2021 2.96044 14.6127 3.38847C16.0234 3.8165 17.3073 4.58447 18.3516 5.62489L19.3763 6.56239L21.2194 4.71551C21.3245 4.61028 21.4585 4.53867 21.6045 4.5098C21.7504 4.48093 21.9016 4.4961 22.0388 4.55338C22.1761 4.61066 22.2933 4.70746 22.3754 4.83149C22.4575 4.95551 22.5009 5.10115 22.5 5.24989Z" fill="#4F4F4F"/>
</svg>