<svg xmlns="http://www.w3.org/2000/svg" width="24" height="24" viewBox="0 0 24 24" fill="none">
<path d="M19.5 3H4.5C4.10218 3 3.72064 3.15804 3.43934 3.43934C3.15804 3.72064 3 4.10218 3 4.5V19.5C3 19.8978 3.15804 20.2794 3.43934 20.5607C3.72064 20.842 4.10218 21 4.5 21H19.5C19.8978 21 20.2794 20.842 20.5607 20.5607C20.842 20.2794 21 19.8978 21 19.5V4.5C21 4.10218 20.842 3.72064 20.5607 3.43934C20.2794 3.15804 19.8978 3 19.5 3ZM4.5 4.5H19.5V11.7544L17.1853 9.43875C16.904 9.15766 16.5227 8.99976 16.125 8.99976C15.7273 8.99976 15.346 9.15766 15.0647 9.43875L5.00344 19.5H4.5V4.5ZM7.5 9C7.5 8.70333 7.58797 8.41332 7.7528 8.16665C7.91762 7.91997 8.15189 7.72771 8.42597 7.61418C8.70006 7.50065 9.00166 7.47094 9.29264 7.52882C9.58361 7.5867 9.85088 7.72956 10.0607 7.93934C10.2704 8.14912 10.4133 8.41639 10.4712 8.70736C10.5291 8.99834 10.4994 9.29994 10.3858 9.57403C10.2723 9.84811 10.08 10.0824 9.83335 10.2472C9.58668 10.412 9.29667 10.5 9 10.5C8.60218 10.5 8.22064 10.342 7.93934 10.0607C7.65804 9.77936 7.5 9.39782 7.5 9Z" fill="#4F4F4F"/>
</svg>