<svg width="25" height="24" viewBox="0 0 25 24" fill="none" xmlns="http://www.w3.org/2000/svg">
<g id="icons" clip-path="url(#clip0_2159_4008)">
<path id="Vector" d="M21.2 15.9C21.0702 15.8026 20.9123 15.75 20.75 15.75H20V6C20 5.20435 19.6839 4.44129 19.1213 3.87868C18.5587 3.31607 17.7957 3 17 3H4.25C3.45435 3 2.69129 3.31607 2.12868 3.87868C1.56607 4.44129 1.25 5.20435 1.25 6C1.25 7.27594 2.19219 8.01938 2.3 8.1C2.42947 8.19804 2.5876 8.25076 2.75 8.25C2.90631 8.24957 3.05858 8.20032 3.18553 8.10912C3.31248 8.01792 3.40776 7.88933 3.45806 7.74133C3.50836 7.59333 3.51115 7.43332 3.46606 7.28365C3.42097 7.13398 3.33025 7.00215 3.20656 6.90656C3.20281 6.90187 2.75 6.53813 2.75 6C2.75 5.60218 2.90804 5.22064 3.18934 4.93934C3.47064 4.65804 3.85218 4.5 4.25 4.5C4.64782 4.5 5.02936 4.65804 5.31066 4.93934C5.59196 5.22064 5.75 5.60218 5.75 6V18C5.75 18.7956 6.06607 19.5587 6.62868 20.1213C7.19129 20.6839 7.95435 21 8.75 21H19.25C20.0457 21 20.8087 20.6839 21.3713 20.1213C21.9339 19.5587 22.25 18.7956 22.25 18C22.25 16.7241 21.3125 15.9806 21.2 15.9ZM10.25 9H16.25C16.4489 9 16.6397 9.07902 16.7803 9.21967C16.921 9.36032 17 9.55109 17 9.75C17 9.94891 16.921 10.1397 16.7803 10.2803C16.6397 10.421 16.4489 10.5 16.25 10.5H10.25C10.0511 10.5 9.86032 10.421 9.71967 10.2803C9.57902 10.1397 9.5 9.94891 9.5 9.75C9.5 9.55109 9.57902 9.36032 9.71967 9.21967C9.86032 9.07902 10.0511 9 10.25 9ZM9.5 12.75C9.5 12.5511 9.57902 12.3603 9.71967 12.2197C9.86032 12.079 10.0511 12 10.25 12H16.25C16.4489 12 16.6397 12.079 16.7803 12.2197C16.921 12.3603 17 12.5511 17 12.75C17 12.9489 16.921 13.1397 16.7803 13.2803C16.6397 13.421 16.4489 13.5 16.25 13.5H10.25C10.0511 13.5 9.86032 13.421 9.71967 13.2803C9.57902 13.1397 9.5 12.9489 9.5 12.75ZM19.25 19.5H10.5978C10.862 19.0443 11.0007 18.5267 11 18C11.0002 17.7457 10.9619 17.4929 10.8866 17.25H20.4491C20.6353 17.4565 20.7425 17.7221 20.7519 18C20.7519 18.1971 20.713 18.3923 20.6375 18.5745C20.562 18.7566 20.4514 18.922 20.3119 19.0613C20.1724 19.2006 20.0068 19.3111 19.8246 19.3864C19.6424 19.4616 19.4471 19.5002 19.25 19.5Z" fill="white"/>
</g>
<defs>
<clipPath id="clip0_2159_4008">
<rect width="24" height="24" fill="white" transform="translate(0.5)"/>
</clipPath>
</defs>
</svg>
