<svg xmlns="http://www.w3.org/2000/svg" width="24" height="24" viewBox="0 0 24 24" fill="none">
  <path d="M22.3068 10.0509C22.2859 9.9453 22.2425 9.84543 22.1796 9.75807C22.1167 9.67072 22.0357 9.59793 21.9421 9.54467L19.1456 7.95092L19.1343 4.79904C19.134 4.69049 19.1101 4.58331 19.0643 4.4849C19.0185 4.38649 18.9518 4.29919 18.869 4.22904C17.8546 3.37095 16.6864 2.71336 15.4265 2.29123C15.3273 2.25765 15.2221 2.24522 15.1178 2.25475C15.0135 2.26428 14.9124 2.29555 14.8209 2.34654L11.9999 3.92342L9.17618 2.34373C9.08464 2.29245 8.98335 2.26094 8.87887 2.25125C8.77439 2.24156 8.66904 2.2539 8.56962 2.28748C7.31053 2.71232 6.1436 3.37246 5.13087 4.23279C5.04815 4.30284 4.9816 4.38999 4.9358 4.48823C4.89 4.58647 4.86603 4.69347 4.86556 4.80186L4.8515 7.95654L2.05493 9.55029C1.96137 9.60356 1.88038 9.67634 1.81745 9.7637C1.75452 9.85105 1.71114 9.95093 1.69025 10.0565C1.43431 11.3427 1.43431 12.6667 1.69025 13.9528C1.71114 14.0584 1.75452 14.1583 1.81745 14.2456C1.88038 14.333 1.96137 14.4058 2.05493 14.459L4.8515 16.0528L4.86275 19.2056C4.86309 19.3142 4.88699 19.4213 4.93279 19.5197C4.9786 19.6182 5.04522 19.7055 5.12806 19.7756C6.1425 20.6337 7.31071 21.2913 8.57056 21.7134C8.66977 21.747 8.77492 21.7594 8.87923 21.7499C8.98354 21.7404 9.08469 21.7091 9.17618 21.6581L11.9999 20.0765L14.8237 21.6562C14.9354 21.7185 15.0614 21.7508 15.1893 21.75C15.2712 21.75 15.3526 21.7367 15.4302 21.7106C16.689 21.286 17.8559 20.6265 18.869 19.7672C18.9517 19.6971 19.0183 19.61 19.0641 19.5117C19.1099 19.4135 19.1338 19.3065 19.1343 19.1981L19.1484 16.0434L21.9449 14.4497C22.0385 14.3964 22.1195 14.3236 22.1824 14.2363C22.2453 14.1489 22.2887 14.049 22.3096 13.9434C22.5641 12.6583 22.5632 11.3357 22.3068 10.0509ZM11.9999 15.75C11.2583 15.75 10.5332 15.53 9.91655 15.118C9.29986 14.7059 8.81921 14.1203 8.53539 13.435C8.25156 12.7498 8.17729 11.9958 8.32199 11.2684C8.46668 10.541 8.82384 9.87278 9.34828 9.34833C9.87273 8.82388 10.5409 8.46673 11.2683 8.32204C11.9958 8.17734 12.7498 8.2516 13.435 8.53543C14.1202 8.81926 14.7059 9.29991 15.1179 9.91659C15.53 10.5333 15.7499 11.2583 15.7499 12C15.7499 12.9945 15.3548 13.9484 14.6516 14.6516C13.9483 15.3549 12.9945 15.75 11.9999 15.75Z" fill="white"/>
</svg>