<svg xmlns="http://www.w3.org/2000/svg" width="24" height="24" viewBox="0 0 24 24" fill="none">
  <path d="M22.2806 16.7195C22.3504 16.7891 22.4057 16.8719 22.4434 16.9629C22.4812 17.0539 22.5006 17.1515 22.5006 17.2501C22.5006 17.3487 22.4812 17.4463 22.4434 17.5373C22.4057 17.6284 22.3504 17.7111 22.2806 17.7807L20.0306 20.0307C19.9257 20.1357 19.792 20.2073 19.6465 20.2362C19.5009 20.2652 19.35 20.2504 19.2129 20.1936C19.0758 20.1368 18.9586 20.0405 18.8762 19.9171C18.7938 19.7936 18.7499 19.6485 18.75 19.5001V18.0001C17.6908 17.9852 16.6499 17.7218 15.7111 17.231C14.7724 16.7402 13.962 16.0358 13.3453 15.1745L9.43406 9.69948C8.94789 9.01985 8.30677 8.46586 7.56382 8.08338C6.82088 7.7009 5.99749 7.50095 5.16188 7.5001H3C2.80109 7.5001 2.61032 7.42109 2.46967 7.28043C2.32902 7.13978 2.25 6.94902 2.25 6.7501C2.25 6.55119 2.32902 6.36042 2.46967 6.21977C2.61032 6.07912 2.80109 6.0001 3 6.0001H5.16188C6.23615 6.001 7.29474 6.25786 8.24996 6.7494C9.20518 7.24095 10.0295 7.95304 10.6547 8.82667L14.5659 14.3017C15.0434 14.9693 15.6704 15.5158 16.397 15.8976C17.1235 16.2793 17.9294 16.4857 18.75 16.5001V15.0001C18.7499 14.8517 18.7938 14.7066 18.8762 14.5831C18.9586 14.4597 19.0758 14.3635 19.2129 14.3066C19.35 14.2498 19.5009 14.235 19.6465 14.264C19.792 14.2929 19.9257 14.3645 20.0306 14.4695L22.2806 16.7195ZM13.4062 10.0314C13.4864 10.0886 13.577 10.1295 13.673 10.1517C13.7689 10.1739 13.8683 10.177 13.9655 10.1609C14.0626 10.1447 14.1557 10.1095 14.2392 10.0574C14.3228 10.0052 14.3953 9.93713 14.4525 9.85698L14.565 9.70042C15.0423 9.03235 15.6695 8.48535 16.3962 8.10326C17.1229 7.72117 17.9291 7.5146 18.75 7.5001V9.0001C18.7499 9.14852 18.7938 9.29364 18.8762 9.41709C18.9586 9.54053 19.0758 9.63676 19.2129 9.69357C19.35 9.75038 19.5009 9.76524 19.6465 9.73625C19.792 9.70726 19.9257 9.63574 20.0306 9.53073L22.2806 7.28073C22.3504 7.21107 22.4057 7.12836 22.4434 7.03731C22.4812 6.94626 22.5006 6.84866 22.5006 6.7501C22.5006 6.65154 22.4812 6.55395 22.4434 6.4629C22.4057 6.37185 22.3504 6.28913 22.2806 6.21948L20.0306 3.96948C19.9257 3.86447 19.792 3.79294 19.6465 3.76396C19.5009 3.73497 19.35 3.74982 19.2129 3.80664C19.0758 3.86345 18.9586 3.95967 18.8762 4.08312C18.7938 4.20656 18.7499 4.35168 18.75 4.5001V6.0001C17.6908 6.01498 16.6499 6.27843 15.7111 6.76922C14.7724 7.26001 13.962 7.96443 13.3453 8.82573L13.2328 8.98229C13.1751 9.06247 13.1338 9.15328 13.1112 9.24948C13.0887 9.34568 13.0854 9.44539 13.1015 9.54287C13.1176 9.64035 13.1528 9.73369 13.2051 9.81752C13.2574 9.90135 13.3258 9.97402 13.4062 10.0314ZM10.5938 13.9689C10.5136 13.9116 10.423 13.8707 10.327 13.8485C10.2311 13.8263 10.1317 13.8232 10.0345 13.8393C9.93736 13.8555 9.84434 13.8907 9.76078 13.9429C9.67722 13.995 9.60475 14.0631 9.5475 14.1432L9.435 14.2998C8.94883 14.9797 8.30761 15.534 7.56448 15.9166C6.82136 16.2993 5.99773 16.4993 5.16188 16.5001H3C2.80109 16.5001 2.61032 16.5791 2.46967 16.7198C2.32902 16.8604 2.25 17.0512 2.25 17.2501C2.25 17.449 2.32902 17.6398 2.46967 17.7804C2.61032 17.9211 2.80109 18.0001 3 18.0001H5.16188C6.23615 17.9992 7.29474 17.7423 8.24996 17.2508C9.20518 16.7593 10.0295 16.0472 10.6547 15.1735L10.7672 15.017C10.8248 14.9368 10.866 14.8461 10.8884 14.75C10.9109 14.6539 10.9142 14.5543 10.898 14.4569C10.8819 14.3595 10.8468 14.2663 10.7945 14.1826C10.7423 14.0988 10.6741 14.0262 10.5938 13.9689Z" fill="#4F4F4F"/>
</svg>