<svg width="24" height="24" viewBox="0 0 24 24" fill="none" xmlns="http://www.w3.org/2000/svg">
<path d="M11.25 1.5V0.75C11.25 0.551088 11.329 0.360322 11.4697 0.21967C11.6103 0.0790176 11.8011 0 12 0C12.1989 0 12.3897 0.0790176 12.5303 0.21967C12.671 0.360322 12.75 0.551088 12.75 0.75V1.5C12.75 1.69891 12.671 1.88968 12.5303 2.03033C12.3897 2.17098 12.1989 2.25 12 2.25C11.8011 2.25 11.6103 2.17098 11.4697 2.03033C11.329 1.88968 11.25 1.69891 11.25 1.5ZM18.75 4.5C18.8485 4.50008 18.9461 4.48074 19.0371 4.4431C19.1282 4.40546 19.2109 4.35025 19.2806 4.28062L20.0306 3.53062C20.1714 3.38989 20.2504 3.19902 20.2504 3C20.2504 2.80098 20.1714 2.61011 20.0306 2.46938C19.8899 2.32864 19.699 2.24958 19.5 2.24958C19.301 2.24958 19.1101 2.32864 18.9694 2.46938L18.2194 3.21938C18.1144 3.32427 18.0428 3.45796 18.0139 3.60352C17.9849 3.74908 17.9997 3.89998 18.0565 4.03709C18.1133 4.17421 18.2096 4.29139 18.333 4.37379C18.4565 4.45619 18.6016 4.50012 18.75 4.5ZM4.71938 4.28062C4.78906 4.35031 4.87178 4.40558 4.96283 4.4433C5.05387 4.48101 5.15145 4.50042 5.25 4.50042C5.34855 4.50042 5.44613 4.48101 5.53717 4.4433C5.62822 4.40558 5.71094 4.35031 5.78062 4.28062C5.85031 4.21094 5.90558 4.12822 5.9433 4.03717C5.98101 3.94613 6.00042 3.84855 6.00042 3.75C6.00042 3.65145 5.98101 3.55387 5.9433 3.46283C5.90558 3.37178 5.85031 3.28906 5.78062 3.21938L5.03062 2.46938C4.88989 2.32864 4.69902 2.24958 4.5 2.24958C4.30098 2.24958 4.11011 2.32864 3.96938 2.46938C3.82864 2.61011 3.74958 2.80098 3.74958 3C3.74958 3.19902 3.82864 3.38989 3.96938 3.53062L4.71938 4.28062ZM21.75 16.5V18.75C21.75 19.1478 21.592 19.5294 21.3107 19.8107C21.0294 20.092 20.6478 20.25 20.25 20.25H3.75C3.35218 20.25 2.97064 20.092 2.68934 19.8107C2.40804 19.5294 2.25 19.1478 2.25 18.75V16.5C2.25 16.1022 2.40804 15.7206 2.68934 15.4393C2.97064 15.158 3.35218 15 3.75 15V12C3.74997 10.9113 3.96542 9.83334 4.38395 8.82829C4.80247 7.82323 5.41579 6.91096 6.18853 6.14405C6.96128 5.37714 7.87818 4.77076 8.88638 4.35987C9.89458 3.94898 10.9741 3.74171 12.0628 3.75C16.5769 3.78375 20.25 7.52719 20.25 12.0938V15C20.6478 15 21.0294 15.158 21.3107 15.4393C21.592 15.7206 21.75 16.1022 21.75 16.5ZM12.6262 8.23969C14.4066 8.53875 15.75 10.155 15.75 12C15.75 12.1989 15.829 12.3897 15.9697 12.5303C16.1103 12.671 16.3011 12.75 16.5 12.75C16.6989 12.75 16.8897 12.671 17.0303 12.5303C17.171 12.3897 17.25 12.1989 17.25 12C17.25 9.43125 15.3684 7.17844 12.8738 6.76031C12.7762 6.74306 12.6762 6.74531 12.5795 6.76693C12.4828 6.78855 12.3913 6.82911 12.3104 6.88627C12.2295 6.94343 12.1607 7.01606 12.108 7.09997C12.0553 7.18387 12.0198 7.27738 12.0034 7.3751C11.9871 7.47282 11.9902 7.57281 12.0128 7.66929C12.0353 7.76577 12.0767 7.85684 12.1346 7.93723C12.1925 8.01762 12.2658 8.08574 12.3502 8.13765C12.4345 8.18957 12.5284 8.22425 12.6262 8.23969ZM20.25 18.75V16.5H3.75V18.75H20.25Z" fill="white"/>
</svg>
