<svg xmlns="http://www.w3.org/2000/svg" width="24" height="24" viewBox="0 0 24 24" fill="none">
<g clip-path="url(#clip0_285_2262)">
<path d="M12 1.5V0.75" stroke="white" stroke-width="1.5" stroke-linecap="round" stroke-linejoin="round"/>
<path d="M18.75 3.75L19.5 3" stroke="white" stroke-width="1.5" stroke-linecap="round" stroke-linejoin="round"/>
<path d="M5.25 3.75L4.5 3" stroke="white" stroke-width="1.5" stroke-linecap="round" stroke-linejoin="round"/>
<path d="M4.5 15.75V12C4.49997 11.0102 4.69584 10.0303 5.07632 9.11658C5.45681 8.20289 6.01437 7.37354 6.71688 6.67635C7.41939 5.97916 8.25294 5.42791 9.1695 5.05438C10.086 4.68085 11.0675 4.49243 12.0572 4.49997C16.1925 4.53091 19.5 7.95841 19.5 12.0937V15.75" stroke="white" stroke-width="1.5" stroke-linecap="round" stroke-linejoin="round"/>
<path d="M12.75 7.5C14.8781 7.85719 16.5 9.77062 16.5 12" stroke="white" stroke-width="1.5" stroke-linecap="round" stroke-linejoin="round"/>
<path d="M20.25 15.75H3.75C3.33579 15.75 3 16.0858 3 16.5V18.75C3 19.1642 3.33579 19.5 3.75 19.5H20.25C20.6642 19.5 21 19.1642 21 18.75V16.5C21 16.0858 20.6642 15.75 20.25 15.75Z" stroke="white" stroke-width="1.5" stroke-linecap="round" stroke-linejoin="round"/>
</g>
<defs>
<clipPath id="clip0_285_2262">
<rect width="24" height="24" fill="white"/>
</clipPath>
</defs>
</svg>