<svg xmlns="http://www.w3.org/2000/svg" width="24" height="24" viewBox="0 0 24 24" fill="none">
  <path d="M17.25 14.2499V9.74993C17.25 9.55101 17.329 9.36025 17.4697 9.2196C17.6103 9.07894 17.8011 8.99993 18 8.99993C18.1989 8.99993 18.3897 9.07894 18.5303 9.2196C18.671 9.36025 18.75 9.55101 18.75 9.74993V14.2499C18.75 14.4488 18.671 14.6396 18.5303 14.7803C18.3897 14.9209 18.1989 14.9999 18 14.9999C17.8011 14.9999 17.6103 14.9209 17.4697 14.7803C17.329 14.6396 17.25 14.4488 17.25 14.2499ZM21 7.49993C20.8011 7.49993 20.6103 7.57894 20.4697 7.7196C20.329 7.86025 20.25 8.05101 20.25 8.24993V15.7499C20.25 15.9488 20.329 16.1396 20.4697 16.2803C20.6103 16.4209 20.8011 16.4999 21 16.4999C21.1989 16.4999 21.3897 16.4209 21.5303 16.2803C21.671 16.1396 21.75 15.9488 21.75 15.7499V8.24993C21.75 8.05101 21.671 7.86025 21.5303 7.7196C21.3897 7.57894 21.1989 7.49993 21 7.49993ZM5.055 3.24555C4.98914 3.17131 4.90919 3.11087 4.8198 3.06775C4.73041 3.02463 4.63335 2.99969 4.53424 2.99435C4.43514 2.98902 4.33596 3.00341 4.24246 3.03669C4.14896 3.06997 4.06299 3.12148 3.98954 3.18823C3.91609 3.25498 3.85662 3.33564 3.81458 3.42555C3.77253 3.51545 3.74875 3.6128 3.74461 3.71196C3.74046 3.81112 3.75604 3.91012 3.79044 4.00322C3.82484 4.09631 3.87738 4.18166 3.945 4.2543L6.89531 7.49993H3C2.60218 7.49993 2.22064 7.65796 1.93934 7.93927C1.65804 8.22057 1.5 8.6021 1.5 8.99993V14.9999C1.5 15.3977 1.65804 15.7793 1.93934 16.0606C2.22064 16.3419 2.60218 16.4999 3 16.4999H7.24219L13.7897 21.5915C13.9005 21.6776 14.0332 21.7309 14.1728 21.7454C14.3124 21.7598 14.4533 21.7348 14.5793 21.6732C14.7054 21.6116 14.8117 21.5158 14.8861 21.3968C14.9604 21.2778 14.9999 21.1403 15 20.9999V16.4146L18.945 20.7543C19.0109 20.8285 19.0908 20.889 19.1802 20.9321C19.2696 20.9752 19.3667 21.0002 19.4658 21.0055C19.5649 21.0108 19.664 20.9964 19.7575 20.9632C19.851 20.9299 19.937 20.8784 20.0105 20.8116C20.0839 20.7449 20.1434 20.6642 20.1854 20.5743C20.2275 20.4844 20.2513 20.387 20.2554 20.2879C20.2595 20.1887 20.244 20.0897 20.2096 19.9966C20.1752 19.9035 20.1226 19.8182 20.055 19.7456L5.055 3.24555ZM13.695 10.5196C13.7968 10.6316 13.9301 10.7102 14.0775 10.745C14.2248 10.7799 14.3792 10.7693 14.5204 10.7147C14.6616 10.6602 14.783 10.5641 14.8686 10.4393C14.9542 10.3144 15 10.1666 15 10.0152V2.99993C14.9999 2.85959 14.9604 2.72209 14.8861 2.60308C14.8117 2.48406 14.7054 2.38829 14.5793 2.32667C14.4533 2.26504 14.3124 2.24003 14.1728 2.25447C14.0332 2.26891 13.9005 2.32223 13.7897 2.40836L10.0538 5.31461C9.97218 5.37811 9.90461 5.45779 9.8553 5.54864C9.80598 5.6395 9.77598 5.73956 9.76718 5.84256C9.75838 5.94556 9.77096 6.04927 9.80414 6.14717C9.83732 6.24508 9.89039 6.33507 9.96 6.41149L13.695 10.5196Z" fill="white"/>
</svg>