<svg width="24" height="24" viewBox="0 0 24 24" fill="none" xmlns="http://www.w3.org/2000/svg">
<path d="M4.15799 13.9299C3.80827 13.3469 3.62354 12.6798 3.62354 11.9999C3.62354 11.32 3.80827 10.6529 4.15799 10.0699C4.26553 9.89042 4.40943 9.73542 4.58045 9.61487C4.75146 9.49431 4.9458 9.41087 5.15099 9.3699L6.84399 9.0309C6.94496 9.01091 7.03602 8.95691 7.10199 8.8779L9.16999 6.3949C10.352 4.9749 10.944 4.2659 11.471 4.4569C12 4.6479 12 5.5719 12 7.4199V16.5819C12 18.4289 12 19.3519 11.472 19.5439C10.945 19.7339 10.353 19.0249 9.17099 17.6059L7.09999 15.1219C7.03427 15.0431 6.94359 14.9891 6.84299 14.9689L5.14999 14.6299C4.9448 14.5889 4.75046 14.5055 4.57945 14.3849C4.40843 14.2644 4.26553 14.1094 4.15799 13.9299Z" fill="white"/>
<path d="M14.5361 8.46402C15.4692 9.39701 15.9956 10.661 16.0006 11.9805C16.0057 13.2999 15.489 14.5679 14.5631 15.508M18.6571 6.34302C20.15 7.83568 20.9923 9.8579 21.0005 11.969C21.0088 14.08 20.1823 16.1087 18.7011 17.613" stroke="white" stroke-width="2" stroke-linecap="round"/>
</svg>
