<svg xmlns="http://www.w3.org/2000/svg" width="24" height="24" viewBox="0 0 24 24" fill="none">
  <path d="M15 2.99993V20.9999C14.9999 21.1403 14.9604 21.2778 14.8861 21.3968C14.8117 21.5158 14.7054 21.6116 14.5793 21.6732C14.4533 21.7348 14.3124 21.7598 14.1728 21.7454C14.0332 21.7309 13.9005 21.6776 13.7897 21.5915L7.24219 16.4999H3C2.60218 16.4999 2.22064 16.3419 1.93934 16.0606C1.65804 15.7793 1.5 15.3977 1.5 14.9999V8.99993C1.5 8.6021 1.65804 8.22057 1.93934 7.93927C2.22064 7.65796 2.60218 7.49993 3 7.49993H7.24219L13.7897 2.40836C13.9005 2.32223 14.0332 2.26891 14.1728 2.25447C14.3124 2.24003 14.4533 2.26504 14.5793 2.32667C14.7054 2.38829 14.8117 2.48406 14.8861 2.60308C14.9604 2.72209 14.9999 2.85959 15 2.99993ZM18 8.99993C17.8011 8.99993 17.6103 9.07894 17.4697 9.2196C17.329 9.36025 17.25 9.55101 17.25 9.74993V14.2499C17.25 14.4488 17.329 14.6396 17.4697 14.7803C17.6103 14.9209 17.8011 14.9999 18 14.9999C18.1989 14.9999 18.3897 14.9209 18.5303 14.7803C18.671 14.6396 18.75 14.4488 18.75 14.2499V9.74993C18.75 9.55101 18.671 9.36025 18.5303 9.2196C18.3897 9.07894 18.1989 8.99993 18 8.99993ZM21 7.49993C20.8011 7.49993 20.6103 7.57894 20.4697 7.7196C20.329 7.86025 20.25 8.05101 20.25 8.24993V15.7499C20.25 15.9488 20.329 16.1396 20.4697 16.2803C20.6103 16.4209 20.8011 16.4999 21 16.4999C21.1989 16.4999 21.3897 16.4209 21.5303 16.2803C21.671 16.1396 21.75 15.9488 21.75 15.7499V8.24993C21.75 8.05101 21.671 7.86025 21.5303 7.7196C21.3897 7.57894 21.1989 7.49993 21 7.49993Z" fill="white"/>
</svg>