<svg xmlns="http://www.w3.org/2000/svg" width="24" height="24" viewBox="0 0 24 24" fill="none">
<path d="M21.6497 20.6251C21.5838 20.7391 21.4891 20.8338 21.3751 20.8997C21.261 20.9655 21.1316 21.0001 21 21.0001H2.99996C2.86838 21 2.73914 20.9652 2.62523 20.8993C2.51133 20.8335 2.41676 20.7388 2.35102 20.6248C2.28529 20.5108 2.2507 20.3815 2.25073 20.2499C2.25077 20.1183 2.28542 19.9891 2.35121 19.8751C3.77903 17.4067 5.97934 15.6367 8.54715 14.7976C7.277 14.0415 6.29016 12.8893 5.7382 11.518C5.18624 10.1468 5.09967 8.63224 5.49178 7.20701C5.8839 5.78178 6.73301 4.52467 7.90874 3.62873C9.08446 2.73279 10.5218 2.24756 12 2.24756C13.4781 2.24756 14.9155 2.73279 16.0912 3.62873C17.2669 4.52467 18.116 5.78178 18.5081 7.20701C18.9003 8.63224 18.8137 10.1468 18.2617 11.518C17.7098 12.8893 16.7229 14.0415 15.4528 14.7976C18.0206 15.6367 20.2209 17.4067 21.6487 19.8751C21.7147 19.989 21.7495 20.1183 21.7497 20.25C21.7498 20.3816 21.7153 20.511 21.6497 20.6251Z" fill="white"/>
</svg>