<svg xmlns="http://www.w3.org/2000/svg" width="12" height="11" viewBox="0 0 12 11" fill="none">
<path d="M1.04883 9.1811C0.737793 9.49213 0.731445 10.0444 1.05518 10.3681C1.38525 10.6918 1.9375 10.6855 2.24219 10.3808L6 6.62299L9.75146 10.3745C10.0688 10.6918 10.6147 10.6918 10.9385 10.3681C11.2622 10.038 11.2622 9.49848 10.9448 9.1811L7.19336 5.42963L10.9448 1.67182C11.2622 1.35444 11.2686 0.808539 10.9385 0.484808C10.6147 0.161078 10.0688 0.161078 9.75146 0.47846L6 4.22993L2.24219 0.47846C1.9375 0.167425 1.37891 0.15473 1.05518 0.484808C0.731445 0.808539 0.737793 1.36713 1.04883 1.67182L4.80029 5.42963L1.04883 9.1811Z" fill="#3C3C43" fill-opacity="0.6"/>
</svg>